<?xml version="1.0" encoding="UTF-8" standalone="no"?>
<svg
   xmlns:dc="http://purl.org/dc/elements/1.1/"
   xmlns:cc="http://creativecommons.org/ns#"
   xmlns:rdf="http://www.w3.org/1999/02/22-rdf-syntax-ns#"
   xmlns:svg="http://www.w3.org/2000/svg"
   xmlns="http://www.w3.org/2000/svg"
   xmlns:sodipodi="http://sodipodi.sourceforge.net/DTD/sodipodi-0.dtd"
   xmlns:inkscape="http://www.inkscape.org/namespaces/inkscape"
   inkscape:version="1.0 (4035a4fb49, 2020-05-01)"
   sodipodi:docname="qa.svg"
   xml:space="preserve"
   style="enable-background:new 0 0 512 512;"
   viewBox="0 0 512 512"
   y="0px"
   x="0px"
   id="Capa_1"
   version="1.1"><metadata
   id="metadata139"><rdf:RDF><cc:Work
       rdf:about=""><dc:format>image/svg+xml</dc:format><dc:type
         rdf:resource="http://purl.org/dc/dcmitype/StillImage" /></cc:Work></rdf:RDF></metadata><defs
   id="defs137" /><sodipodi:namedview
   inkscape:current-layer="Capa_1"
   inkscape:window-maximized="1"
   inkscape:window-y="-8"
   inkscape:window-x="-8"
   inkscape:cy="256"
   inkscape:cx="256"
   inkscape:zoom="1.0507812"
   showgrid="false"
   id="namedview135"
   inkscape:window-height="705"
   inkscape:window-width="1366"
   inkscape:pageshadow="2"
   inkscape:pageopacity="0"
   guidetolerance="10"
   gridtolerance="10"
   objecttolerance="10"
   borderopacity="1"
   bordercolor="#666666"
   pagecolor="#ffffff" />
<g
   style="fill:#ffffff"
   id="g6">
	<g
   style="fill:#ffffff"
   id="g4">
		<path
   style="fill:#ffffff"
   id="path2"
   d="M146.675,417.111l-35.462-84C109.649,329.407,106.02,327,102,327s-7.649,2.407-9.213,6.111l-35.462,84    c-2.148,5.088,0.235,10.954,5.324,13.102c5.086,2.146,10.954-0.236,13.102-5.324l5.012-11.873h42.474l5.012,11.873    c1.612,3.819,5.317,6.113,9.217,6.113c1.296,0,2.615-0.254,3.885-0.79C146.44,428.064,148.823,422.199,146.675,417.111z     M89.206,393.016L102,362.711l12.794,30.305H89.206z" />
	</g>
</g>
<g
   style="fill:#ffffff"
   id="g12">
	<g
   style="fill:#ffffff"
   id="g10">
		<path
   style="fill:#ffffff"
   id="path8"
   d="M502,27H10C4.477,27,0,31.477,0,37v192c0,5.523,4.477,10,10,10h492c5.523,0,10-4.477,10-10V37    C512,31.477,507.523,27,502,27z M184,219H20V47h164V219z M492,219H204V47h288V219z" />
	</g>
</g>
<g
   style="fill:#ffffff"
   id="g18">
	<g
   style="fill:#ffffff"
   id="g16">
		<path
   style="fill:#ffffff"
   id="path14"
   d="M368.5,123H256.127c-5.523,0-10,4.477-10,10s4.477,10,10,10H368.5c5.523,0,10-4.477,10-10S374.023,123,368.5,123z" />
	</g>
</g>
<g
   style="fill:#ffffff"
   id="g24">
	<g
   style="fill:#ffffff"
   id="g22">
		<path
   style="fill:#ffffff"
   id="path20"
   d="M447.527,123H411.41c-5.523,0-10,4.477-10,10s4.477,10,10,10h36.117c5.523,0,10-4.477,10-10S453.05,123,447.527,123z" />
	</g>
</g>
<g
   style="fill:#ffffff"
   id="g30">
	<g
   style="fill:#ffffff"
   id="g28">
		<path
   style="fill:#ffffff"
   id="path26"
   d="M417.902,79H256.127c-5.523,0-10,4.477-10,10s4.477,10,10,10h161.775c5.523,0,10-4.477,10-10S423.425,79,417.902,79z" />
	</g>
</g>
<g
   style="fill:#ffffff"
   id="g36">
	<g
   style="fill:#ffffff"
   id="g34">
		<path
   style="fill:#ffffff"
   id="path32"
   d="M455.07,81.93C453.21,80.07,450.63,79,448,79s-5.21,1.07-7.07,2.93C439.07,83.79,438,86.37,438,89s1.07,5.21,2.93,7.07    c1.86,1.86,4.44,2.93,7.07,2.93s5.21-1.07,7.07-2.93c1.86-1.86,2.93-4.44,2.93-7.07S456.93,83.79,455.07,81.93z" />
	</g>
</g>
<g
   style="fill:#ffffff"
   id="g42">
	<g
   style="fill:#ffffff"
   id="g40">
		<path
   style="fill:#ffffff"
   id="path38"
   d="M341.325,167h-85.198c-5.523,0-10,4.477-10,10s4.477,10,10,10h85.198c5.523,0,10-4.477,10-10S346.848,167,341.325,167z" />
	</g>
</g>
<g
   style="fill:#ffffff"
   id="g48">
	<g
   style="fill:#ffffff"
   id="g46">
		<path
   style="fill:#ffffff"
   id="path44"
   d="M382.36,169.93c-1.86-1.86-4.44-2.93-7.07-2.93s-5.21,1.07-7.07,2.93s-2.93,4.44-2.93,7.07s1.07,5.21,2.93,7.07    s4.44,2.93,7.07,2.93s5.21-1.07,7.07-2.93c1.86-1.86,2.93-4.44,2.93-7.07S384.22,171.79,382.36,169.93z" />
	</g>
</g>
<g
   style="fill:#ffffff"
   id="g54">
	<g
   style="fill:#ffffff"
   id="g52">
		<path
   style="fill:#ffffff"
   id="path50"
   d="M418.48,169.93c-1.86-1.86-4.44-2.93-7.07-2.93s-5.21,1.07-7.07,2.93s-2.93,4.44-2.93,7.07s1.07,5.21,2.93,7.07    s4.44,2.93,7.07,2.93s5.21-1.07,7.07-2.93c1.86-1.86,2.93-4.44,2.93-7.07S420.34,171.79,418.48,169.93z" />
	</g>
</g>
<g
   style="fill:#ffffff"
   id="g60">
	<g
   style="fill:#ffffff"
   id="g58">
		<path
   style="fill:#ffffff"
   id="path56"
   d="M454.6,169.93c-1.86-1.86-4.44-2.93-7.07-2.93c-2.64,0-5.21,1.07-7.07,2.93c-1.87,1.86-2.93,4.44-2.93,7.07    s1.06,5.21,2.93,7.07c1.86,1.86,4.43,2.93,7.07,2.93c2.63,0,5.21-1.07,7.07-2.93c1.86-1.86,2.93-4.44,2.93-7.07    S456.46,171.79,454.6,169.93z" />
	</g>
</g>
<g
   style="fill:#ffffff"
   id="g66">
	<g
   style="fill:#ffffff"
   id="g64">
		<path
   style="fill:#ffffff"
   id="path62"
   d="M502,273H10c-5.523,0-10,4.477-10,10v192c0,5.523,4.477,10,10,10h492c5.523,0,10-4.477,10-10V283    C512,277.477,507.523,273,502,273z M184,465H20V293h164V465z M492,465H204V293h288V465z" />
	</g>
</g>
<g
   style="fill:#ffffff"
   id="g72">
	<g
   style="fill:#ffffff"
   id="g70">
		<path
   style="fill:#ffffff"
   id="path68"
   d="M368.5,369H256.127c-5.523,0-10,4.477-10,10s4.477,10,10,10H368.5c5.523,0,10-4.477,10-10S374.023,369,368.5,369z" />
	</g>
</g>
<g
   style="fill:#ffffff"
   id="g78">
	<g
   style="fill:#ffffff"
   id="g76">
		<path
   style="fill:#ffffff"
   id="path74"
   d="M447.527,369H411.41c-5.523,0-10,4.477-10,10s4.477,10,10,10h36.117c5.523,0,10-4.477,10-10S453.05,369,447.527,369z" />
	</g>
</g>
<g
   style="fill:#ffffff"
   id="g84">
	<g
   style="fill:#ffffff"
   id="g82">
		<path
   style="fill:#ffffff"
   id="path80"
   d="M417.902,325H256.127c-5.523,0-10,4.477-10,10s4.477,10,10,10h161.775c5.523,0,10-4.477,10-10S423.425,325,417.902,325z" />
	</g>
</g>
<g
   style="fill:#ffffff"
   id="g90">
	<g
   style="fill:#ffffff"
   id="g88">
		<path
   style="fill:#ffffff"
   id="path86"
   d="M455.07,327.93c-1.86-1.86-4.44-2.93-7.07-2.93s-5.21,1.07-7.07,2.93c-1.86,1.86-2.93,4.44-2.93,7.07s1.07,5.21,2.93,7.07    c1.86,1.86,4.44,2.93,7.07,2.93s5.21-1.07,7.07-2.93c1.86-1.86,2.93-4.44,2.93-7.07S456.93,329.79,455.07,327.93z" />
	</g>
</g>
<g
   style="fill:#ffffff"
   id="g96">
	<g
   style="fill:#ffffff"
   id="g94">
		<path
   style="fill:#ffffff"
   id="path92"
   d="M447.527,413h-191.4c-5.523,0-10,4.477-10,10s4.477,10,10,10h191.4c5.523,0,10-4.477,10-10S453.05,413,447.527,413z" />
	</g>
</g>
<g
   style="fill:#ffffff"
   id="g102">
	<g
   style="fill:#ffffff"
   id="g100">
		<path
   style="fill:#ffffff"
   id="path98"
   d="M150.93,162.948l-9.49-6.988c2.921-6.041,4.56-12.813,4.56-19.96v-16c0-25.364-20.636-46-46-46s-46,20.636-46,46v16    c0,25.364,20.636,46,46,46c10.997,0,21.102-3.883,29.024-10.345l10.046,7.397c1.786,1.315,3.863,1.948,5.922,1.948    c3.07,0,6.1-1.409,8.06-4.071C156.327,172.482,155.377,166.222,150.93,162.948z M126,136c0,2.69-0.411,5.285-1.172,7.727    l-10.565-7.779c-4.449-3.275-10.708-2.324-13.982,2.123c-3.275,4.447-2.325,10.708,2.123,13.982l9.544,7.028    c-3.58,1.86-7.642,2.919-11.948,2.919c-14.336,0-26-11.664-26-26v-16c0-14.336,11.664-26,26-26s26,11.664,26,26V136z" />
	</g>
</g>
<g
   style="fill:#ffffff"
   id="g104">
</g>
<g
   style="fill:#ffffff"
   id="g106">
</g>
<g
   style="fill:#ffffff"
   id="g108">
</g>
<g
   style="fill:#ffffff"
   id="g110">
</g>
<g
   style="fill:#ffffff"
   id="g112">
</g>
<g
   style="fill:#ffffff"
   id="g114">
</g>
<g
   style="fill:#ffffff"
   id="g116">
</g>
<g
   style="fill:#ffffff"
   id="g118">
</g>
<g
   style="fill:#ffffff"
   id="g120">
</g>
<g
   style="fill:#ffffff"
   id="g122">
</g>
<g
   style="fill:#ffffff"
   id="g124">
</g>
<g
   style="fill:#ffffff"
   id="g126">
</g>
<g
   style="fill:#ffffff"
   id="g128">
</g>
<g
   style="fill:#ffffff"
   id="g130">
</g>
<g
   style="fill:#ffffff"
   id="g132">
</g>
</svg>
